solid CUBE 20X20
   facet normal -1.000000e+00 -1.224647e-16 -0.000000e+00
      outer loop
         vertex 2.449294e-15 0.000000e+00 2.000000e+01
         vertex 1.706184e-15 6.067948e+00 1.670000e+01
         vertex 2.449294e-15 0.000000e+00 0.000000e+00
      endloop
   endfacet
   facet normal -1.000000e+00 -1.224647e-16 2.264991e-25
      outer loop
         vertex 1.706184e-15 6.067948e+00 1.670000e+01
         vertex 1.207690e-15 1.013846e+01 4.000000e+00
         vertex 2.449294e-15 0.000000e+00 0.000000e+00
      endloop
   endfacet
   facet normal -1.000000e+00 -1.224647e-16 -7.758142e-24
      outer loop
         vertex 1.207690e-15 1.013846e+01 4.000000e+00
         vertex 0.000000e+00 2.000000e+01 0.000000e+00
         vertex 2.449294e-15 0.000000e+00 0.000000e+00
      endloop
   endfacet
   facet normal 0.000000e+00 -1.000000e+00 0.000000e+00
      outer loop
         vertex 2.000000e+01 0.000000e+00 0.000000e+00
         vertex 2.449294e-15 0.000000e+00 2.000000e+01
         vertex 2.449294e-15 0.000000e+00 0.000000e+00
      endloop
   endfacet
   facet normal 0.000000e+00 0.000000e+00 -1.000000e+00
      outer loop
         vertex 0.000000e+00 2.000000e+01 0.000000e+00
         vertex 2.000000e+01 0.000000e+00 0.000000e+00
         vertex 2.449294e-15 0.000000e+00 0.000000e+00
      endloop
   endfacet
   facet normal -0.000000e+00 -1.000000e+00 -0.000000e+00
      outer loop
         vertex 2.000000e+01 0.000000e+00 2.000000e+01
         vertex 2.449294e-15 0.000000e+00 2.000000e+01
         vertex 2.000000e+01 0.000000e+00 0.000000e+00
      endloop
   endfacet
   facet normal 1.000000e+00 0.000000e+00 0.000000e+00
      outer loop
         vertex 2.000000e+01 2.000000e+01 0.000000e+00
         vertex 2.000000e+01 0.000000e+00 2.000000e+01
         vertex 2.000000e+01 0.000000e+00 0.000000e+00
      endloop
   endfacet
   facet normal 0.000000e+00 0.000000e+00 -1.000000e+00
      outer loop
         vertex 0.000000e+00 2.000000e+01 0.000000e+00
         vertex 2.000000e+01 2.000000e+01 0.000000e+00
         vertex 2.000000e+01 0.000000e+00 0.000000e+00
      endloop
   endfacet
   facet normal -1.000000e+00 -1.224647e-16 8.627738e-18
      outer loop
         vertex 0.000000e+00 2.000000e+01 2.000000e+01
         vertex 1.517883e-15 7.373056e+00 1.670000e+01
         vertex 2.449294e-15 0.000000e+00 2.000000e+01
      endloop
   endfacet
   facet normal -1.000000e+00 -1.442801e-16 -4.011365e-17
      outer loop
         vertex 1.517883e-15 7.373056e+00 1.670000e+01
         vertex 1.706184e-15 6.067948e+00 1.670000e+01
         vertex 2.449294e-15 0.000000e+00 2.000000e+01
      endloop
   endfacet
   facet normal 0.000000e+00 0.000000e+00 1.000000e+00
      outer loop
         vertex 1.348974e+01 3.500000e+00 2.000000e+01
         vertex 6.488462e+00 3.500000e+00 2.000000e+01
         vertex 2.449294e-15 0.000000e+00 2.000000e+01
      endloop
   endfacet
   facet normal 0.000000e+00 0.000000e+00 1.000000e+00
      outer loop
         vertex 2.000000e+01 0.000000e+00 2.000000e+01
         vertex 1.348974e+01 3.500000e+00 2.000000e+01
         vertex 2.449294e-15 0.000000e+00 2.000000e+01
      endloop
   endfacet
   facet normal 0.000000e+00 -0.000000e+00 1.000000e+00
      outer loop
         vertex 6.488462e+00 3.500000e+00 2.000000e+01
         vertex 1.181575e+01 1.489744e+01 2.000000e+01
         vertex 2.449294e-15 0.000000e+00 2.000000e+01
      endloop
   endfacet
   facet normal 0.000000e+00 0.000000e+00 1.000000e+00
      outer loop
         vertex 1.181575e+01 1.489744e+01 2.000000e+01
         vertex 6.976923e+00 1.489744e+01 2.000000e+01
         vertex 2.449294e-15 0.000000e+00 2.000000e+01
      endloop
   endfacet
   facet normal 0.000000e+00 0.000000e+00 1.000000e+00
      outer loop
         vertex 6.976923e+00 1.489744e+01 2.000000e+01
         vertex 0.000000e+00 2.000000e+01 2.000000e+01
         vertex 2.449294e-15 0.000000e+00 2.000000e+01
      endloop
   endfacet
   facet normal 0.000000e+00 0.000000e+00 1.000000e+00
      outer loop
         vertex 1.348974e+01 4.802563e+00 2.000000e+01
         vertex 1.348974e+01 3.500000e+00 2.000000e+01
         vertex 2.000000e+01 0.000000e+00 2.000000e+01
      endloop
   endfacet
   facet normal 0.000000e+00 0.000000e+00 1.000000e+00
      outer loop
         vertex 2.000000e+01 2.000000e+01 2.000000e+01
         vertex 1.348974e+01 4.802563e+00 2.000000e+01
         vertex 2.000000e+01 0.000000e+00 2.000000e+01
      endloop
   endfacet
   facet normal 1.000000e+00 0.000000e+00 -0.000000e+00
      outer loop
         vertex 2.000000e+01 2.000000e+01 0.000000e+00
         vertex 2.000000e+01 2.000000e+01 2.000000e+01
         vertex 2.000000e+01 0.000000e+00 2.000000e+01
      endloop
   endfacet
   facet normal 0.000000e+00 1.000000e+00 0.000000e+00
      outer loop
         vertex 1.348974e+01 3.500000e+00 2.000000e+01
         vertex 1.348974e+01 3.500000e+00 1.900000e+01
         vertex 6.488462e+00 3.500000e+00 1.900000e+01
      endloop
   endfacet
   facet normal -0.000000e+00 1.000000e+00 0.000000e+00
      outer loop
         vertex 6.488462e+00 3.500000e+00 2.000000e+01
         vertex 1.348974e+01 3.500000e+00 2.000000e+01
         vertex 6.488462e+00 3.500000e+00 1.900000e+01
      endloop
   endfacet
   facet normal 9.059247e-01 -4.234389e-01 0.000000e+00
      outer loop
         vertex 1.181575e+01 1.489744e+01 1.900000e+01
         vertex 6.488462e+00 3.500000e+00 2.000000e+01
         vertex 6.488462e+00 3.500000e+00 1.900000e+01
      endloop
   endfacet
   facet normal 0.000000e+00 -0.000000e+00 1.000000e+00
      outer loop
         vertex 8.325281e+00 4.802563e+00 1.900000e+01
         vertex 1.181575e+01 1.489744e+01 1.900000e+01
         vertex 6.488462e+00 3.500000e+00 1.900000e+01
      endloop
   endfacet
   facet normal 0.000000e+00 0.000000e+00 1.000000e+00
      outer loop
         vertex 1.348974e+01 4.802563e+00 1.900000e+01
         vertex 8.325281e+00 4.802563e+00 1.900000e+01
         vertex 6.488462e+00 3.500000e+00 1.900000e+01
      endloop
   endfacet
   facet normal 0.000000e+00 -0.000000e+00 1.000000e+00
      outer loop
         vertex 1.348974e+01 3.500000e+00 1.900000e+01
         vertex 1.348974e+01 4.802563e+00 1.900000e+01
         vertex 6.488462e+00 3.500000e+00 1.900000e+01
      endloop
   endfacet
   facet normal -1.000000e+00 0.000000e+00 -0.000000e+00
      outer loop
         vertex 1.348974e+01 4.802563e+00 2.000000e+01
         vertex 1.348974e+01 4.802563e+00 1.900000e+01
         vertex 1.348974e+01 3.500000e+00 1.900000e+01
      endloop
   endfacet
   facet normal -1.000000e+00 0.000000e+00 0.000000e+00
      outer loop
         vertex 1.348974e+01 3.500000e+00 2.000000e+01
         vertex 1.348974e+01 4.802563e+00 2.000000e+01
         vertex 1.348974e+01 3.500000e+00 1.900000e+01
      endloop
   endfacet
   facet normal 9.059247e-01 -4.234389e-01 0.000000e+00
      outer loop
         vertex 1.181575e+01 1.489744e+01 1.900000e+01
         vertex 1.181575e+01 1.489744e+01 2.000000e+01
         vertex 6.488462e+00 3.500000e+00 2.000000e+01
      endloop
   endfacet
   facet normal -9.059247e-01 4.234389e-01 0.000000e+00
      outer loop
         vertex 1.365256e+01 1.620000e+01 2.000000e+01
         vertex 1.365256e+01 1.620000e+01 1.900000e+01
         vertex 8.325281e+00 4.802563e+00 1.900000e+01
      endloop
   endfacet
   facet normal -9.059247e-01 4.234389e-01 0.000000e+00
      outer loop
         vertex 8.325281e+00 4.802563e+00 2.000000e+01
         vertex 1.365256e+01 1.620000e+01 2.000000e+01
         vertex 8.325281e+00 4.802563e+00 1.900000e+01
      endloop
   endfacet
   facet normal 0.000000e+00 -1.000000e+00 0.000000e+00
      outer loop
         vertex 1.348974e+01 4.802563e+00 1.900000e+01
         vertex 8.325281e+00 4.802563e+00 2.000000e+01
         vertex 8.325281e+00 4.802563e+00 1.900000e+01
      endloop
   endfacet
   facet normal 0.000000e+00 0.000000e+00 1.000000e+00
      outer loop
         vertex 1.365256e+01 1.620000e+01 1.900000e+01
         vertex 1.181575e+01 1.489744e+01 1.900000e+01
         vertex 8.325281e+00 4.802563e+00 1.900000e+01
      endloop
   endfacet
   facet normal -0.000000e+00 -1.000000e+00 -0.000000e+00
      outer loop
         vertex 1.348974e+01 4.802563e+00 2.000000e+01
         vertex 8.325281e+00 4.802563e+00 2.000000e+01
         vertex 1.348974e+01 4.802563e+00 1.900000e+01
      endloop
   endfacet
   facet normal 0.000000e+00 -0.000000e+00 1.000000e+00
      outer loop
         vertex 1.348974e+01 4.802563e+00 2.000000e+01
         vertex 2.000000e+01 2.000000e+01 2.000000e+01
         vertex 8.325281e+00 4.802563e+00 2.000000e+01
      endloop
   endfacet
   facet normal 0.000000e+00 0.000000e+00 1.000000e+00
      outer loop
         vertex 2.000000e+01 2.000000e+01 2.000000e+01
         vertex 1.365256e+01 1.620000e+01 2.000000e+01
         vertex 8.325281e+00 4.802563e+00 2.000000e+01
      endloop
   endfacet
   facet normal -1.000000e+00 -1.224647e-16 -0.000000e+00
      outer loop
         vertex 1.207690e-15 1.013846e+01 1.003708e+01
         vertex 1.207690e-15 1.013846e+01 4.000000e+00
         vertex 1.706184e-15 6.067948e+00 1.670000e+01
      endloop
   endfacet
   facet normal 0.000000e+00 0.000000e+00 -1.000000e+00
      outer loop
         vertex 1.517883e-15 7.373056e+00 1.670000e+01
         vertex 1.000000e+00 6.067948e+00 1.670000e+01
         vertex 1.706184e-15 6.067948e+00 1.670000e+01
      endloop
   endfacet
   facet normal 0.000000e+00 8.533543e-01 5.213314e-01
      outer loop
         vertex 1.000000e+00 6.067948e+00 1.670000e+01
         vertex 1.000000e+00 1.013846e+01 1.003708e+01
         vertex 1.706184e-15 6.067948e+00 1.670000e+01
      endloop
   endfacet
   facet normal 0.000000e+00 8.533543e-01 5.213314e-01
      outer loop
         vertex 1.000000e+00 1.013846e+01 1.003708e+01
         vertex 1.207690e-15 1.013846e+01 1.003708e+01
         vertex 1.706184e-15 6.067948e+00 1.670000e+01
      endloop
   endfacet
   facet normal 0.000000e+00 0.000000e+00 -1.000000e+00
      outer loop
         vertex 1.517883e-15 7.373056e+00 1.670000e+01
         vertex 1.000000e+00 7.373056e+00 1.670000e+01
         vertex 1.000000e+00 6.067948e+00 1.670000e+01
      endloop
   endfacet
   facet normal -1.000000e+00 -0.000000e+00 -0.000000e+00
      outer loop
         vertex 1.000000e+00 7.373056e+00 1.670000e+01
         vertex 1.000000e+00 1.013846e+01 1.003708e+01
         vertex 1.000000e+00 6.067948e+00 1.670000e+01
      endloop
   endfacet
   facet normal 0.000000e+00 -8.534293e-01 -5.212086e-01
      outer loop
         vertex 1.084202e-15 1.070579e+01 1.124297e+01
         vertex 1.000000e+00 7.373056e+00 1.670000e+01
         vertex 1.517883e-15 7.373056e+00 1.670000e+01
      endloop
   endfacet
   facet normal -1.000000e+00 -1.300285e-16 3.756939e-17
      outer loop
         vertex 0.000000e+00 2.000000e+01 2.000000e+01
         vertex 6.505213e-16 1.404361e+01 1.670000e+01
         vertex 1.517883e-15 7.373056e+00 1.670000e+01
      endloop
   endfacet
   facet normal -1.000000e+00 -1.300285e-16 6.062100e-20
      outer loop
         vertex 6.505213e-16 1.404361e+01 1.670000e+01
         vertex 1.084202e-15 1.070579e+01 1.124297e+01
         vertex 1.517883e-15 7.373056e+00 1.670000e+01
      endloop
   endfacet
   facet normal 0.000000e+00 -8.534293e-01 -5.212086e-01
      outer loop
         vertex 1.084202e-15 1.070579e+01 1.124297e+01
         vertex 1.000000e+00 1.070579e+01 1.124297e+01
         vertex 1.000000e+00 7.373056e+00 1.670000e+01
      endloop
   endfacet
   facet normal -1.000000e+00 -0.000000e+00 0.000000e+00
      outer loop
         vertex 1.000000e+00 1.070579e+01 1.124297e+01
         vertex 1.000000e+00 1.013846e+01 1.003708e+01
         vertex 1.000000e+00 7.373056e+00 1.670000e+01
      endloop
   endfacet
   facet normal -1.000000e+00 -1.224646e-16 8.981569e-23
      outer loop
         vertex 1.068112e-15 1.127820e+01 4.000000e+00
         vertex 0.000000e+00 2.000000e+01 0.000000e+00
         vertex 1.207690e-15 1.013846e+01 4.000000e+00
      endloop
   endfacet
   facet normal 0.000000e+00 1.000000e+00 0.000000e+00
      outer loop
         vertex 1.207690e-15 1.013846e+01 1.003708e+01
         vertex 1.000000e+00 1.013846e+01 4.000000e+00
         vertex 1.207690e-15 1.013846e+01 4.000000e+00
      endloop
   endfacet
   facet normal 0.000000e+00 -0.000000e+00 1.000000e+00
      outer loop
         vertex 1.000000e+00 1.013846e+01 4.000000e+00
         vertex 1.000000e+00 1.127820e+01 4.000000e+00
         vertex 1.207690e-15 1.013846e+01 4.000000e+00
      endloop
   endfacet
   facet normal 0.000000e+00 0.000000e+00 1.000000e+00
      outer loop
         vertex 1.000000e+00 1.127820e+01 4.000000e+00
         vertex 1.068112e-15 1.127820e+01 4.000000e+00
         vertex 1.207690e-15 1.013846e+01 4.000000e+00
      endloop
   endfacet
   facet normal -0.000000e+00 1.000000e+00 0.000000e+00
      outer loop
         vertex 1.207690e-15 1.013846e+01 1.003708e+01
         vertex 1.000000e+00 1.013846e+01 1.003708e+01
         vertex 1.000000e+00 1.013846e+01 4.000000e+00
      endloop
   endfacet
   facet normal -1.000000e+00 0.000000e+00 0.000000e+00
      outer loop
         vertex 1.000000e+00 1.013846e+01 1.003708e+01
         vertex 1.000000e+00 1.070579e+01 1.124297e+01
         vertex 1.000000e+00 1.013846e+01 4.000000e+00
      endloop
   endfacet
   facet normal -1.000000e+00 0.000000e+00 -0.000000e+00
      outer loop
         vertex 1.000000e+00 1.070579e+01 1.124297e+01
         vertex 1.000000e+00 1.127820e+01 1.003708e+01
         vertex 1.000000e+00 1.013846e+01 4.000000e+00
      endloop
   endfacet
   facet normal -1.000000e+00 0.000000e+00 -0.000000e+00
      outer loop
         vertex 1.000000e+00 1.127820e+01 1.003708e+01
         vertex 1.000000e+00 1.127820e+01 4.000000e+00
         vertex 1.000000e+00 1.013846e+01 4.000000e+00
      endloop
   endfacet
   facet normal 0.000000e+00 8.530753e-01 -5.217878e-01
      outer loop
         vertex 6.505213e-16 1.404361e+01 1.670000e+01
         vertex 1.000000e+00 1.070579e+01 1.124297e+01
         vertex 1.084202e-15 1.070579e+01 1.124297e+01
      endloop
   endfacet
   facet normal 0.000000e+00 8.530753e-01 -5.217878e-01
      outer loop
         vertex 6.505213e-16 1.404361e+01 1.670000e+01
         vertex 1.000000e+00 1.404361e+01 1.670000e+01
         vertex 1.000000e+00 1.070579e+01 1.124297e+01
      endloop
   endfacet
   facet normal -1.000000e+00 0.000000e+00 -0.000000e+00
      outer loop
         vertex 1.000000e+00 1.404361e+01 1.670000e+01
         vertex 1.000000e+00 1.534872e+01 1.670000e+01
         vertex 1.000000e+00 1.070579e+01 1.124297e+01
      endloop
   endfacet
   facet normal -1.000000e+00 0.000000e+00 0.000000e+00
      outer loop
         vertex 1.000000e+00 1.534872e+01 1.670000e+01
         vertex 1.000000e+00 1.127820e+01 1.003708e+01
         vertex 1.000000e+00 1.070579e+01 1.124297e+01
      endloop
   endfacet
   facet normal -1.000000e+00 -1.224647e-16 -0.000000e+00
      outer loop
         vertex 1.068112e-15 1.127820e+01 1.003708e+01
         vertex 0.000000e+00 2.000000e+01 0.000000e+00
         vertex 1.068112e-15 1.127820e+01 4.000000e+00
      endloop
   endfacet
   facet normal 0.000000e+00 -1.000000e+00 0.000000e+00
      outer loop
         vertex 1.000000e+00 1.127820e+01 4.000000e+00
         vertex 1.000000e+00 1.127820e+01 1.003708e+01
         vertex 1.068112e-15 1.127820e+01 4.000000e+00
      endloop
   endfacet
   facet normal -0.000000e+00 -1.000000e+00 0.000000e+00
      outer loop
         vertex 1.000000e+00 1.127820e+01 1.003708e+01
         vertex 1.068112e-15 1.127820e+01 1.003708e+01
         vertex 1.068112e-15 1.127820e+01 4.000000e+00
      endloop
   endfacet
   facet normal -1.000000e+00 -1.224647e-16 -8.046357e-25
      outer loop
         vertex 5.696178e-16 1.534872e+01 1.670000e+01
         vertex 0.000000e+00 2.000000e+01 0.000000e+00
         vertex 1.068112e-15 1.127820e+01 1.003708e+01
      endloop
   endfacet
   facet normal 0.000000e+00 -8.533543e-01 5.213314e-01
      outer loop
         vertex 1.000000e+00 1.127820e+01 1.003708e+01
         vertex 1.000000e+00 1.534872e+01 1.670000e+01
         vertex 1.068112e-15 1.127820e+01 1.003708e+01
      endloop
   endfacet
   facet normal 0.000000e+00 -8.533543e-01 5.213314e-01
      outer loop
         vertex 1.000000e+00 1.534872e+01 1.670000e+01
         vertex 5.696178e-16 1.534872e+01 1.670000e+01
         vertex 1.068112e-15 1.127820e+01 1.003708e+01
      endloop
   endfacet
   facet normal 0.000000e+00 0.000000e+00 -1.000000e+00
      outer loop
         vertex 5.696178e-16 1.534872e+01 1.670000e+01
         vertex 1.000000e+00 1.404361e+01 1.670000e+01
         vertex 6.505213e-16 1.404361e+01 1.670000e+01
      endloop
   endfacet
   facet normal -1.000000e+00 -6.198990e-17 -8.523796e-17
      outer loop
         vertex 0.000000e+00 2.000000e+01 2.000000e+01
         vertex 5.696178e-16 1.534872e+01 1.670000e+01
         vertex 6.505213e-16 1.404361e+01 1.670000e+01
      endloop
   endfacet
   facet normal 0.000000e+00 0.000000e+00 -1.000000e+00
      outer loop
         vertex 5.696178e-16 1.534872e+01 1.670000e+01
         vertex 1.000000e+00 1.534872e+01 1.670000e+01
         vertex 1.000000e+00 1.404361e+01 1.670000e+01
      endloop
   endfacet
   facet normal 0.000000e+00 1.000000e+00 0.000000e+00
      outer loop
         vertex 1.181575e+01 1.489744e+01 2.000000e+01
         vertex 1.181575e+01 1.489744e+01 1.900000e+01
         vertex 6.976923e+00 1.489744e+01 1.900000e+01
      endloop
   endfacet
   facet normal -0.000000e+00 1.000000e+00 0.000000e+00
      outer loop
         vertex 6.976923e+00 1.489744e+01 2.000000e+01
         vertex 1.181575e+01 1.489744e+01 2.000000e+01
         vertex 6.976923e+00 1.489744e+01 1.900000e+01
      endloop
   endfacet
   facet normal 1.000000e+00 0.000000e+00 0.000000e+00
      outer loop
         vertex 6.976923e+00 1.620000e+01 1.900000e+01
         vertex 6.976923e+00 1.489744e+01 2.000000e+01
         vertex 6.976923e+00 1.489744e+01 1.900000e+01
      endloop
   endfacet
   facet normal 0.000000e+00 0.000000e+00 1.000000e+00
      outer loop
         vertex 1.365256e+01 1.620000e+01 1.900000e+01
         vertex 6.976923e+00 1.620000e+01 1.900000e+01
         vertex 6.976923e+00 1.489744e+01 1.900000e+01
      endloop
   endfacet
   facet normal 0.000000e+00 -0.000000e+00 1.000000e+00
      outer loop
         vertex 1.181575e+01 1.489744e+01 1.900000e+01
         vertex 1.365256e+01 1.620000e+01 1.900000e+01
         vertex 6.976923e+00 1.489744e+01 1.900000e+01
      endloop
   endfacet
   facet normal 0.000000e+00 0.000000e+00 1.000000e+00
      outer loop
         vertex 6.976923e+00 1.620000e+01 2.000000e+01
         vertex 0.000000e+00 2.000000e+01 2.000000e+01
         vertex 6.976923e+00 1.489744e+01 2.000000e+01
      endloop
   endfacet
   facet normal 1.000000e+00 0.000000e+00 -0.000000e+00
      outer loop
         vertex 6.976923e+00 1.620000e+01 1.900000e+01
         vertex 6.976923e+00 1.620000e+01 2.000000e+01
         vertex 6.976923e+00 1.489744e+01 2.000000e+01
      endloop
   endfacet
   facet normal -1.000000e+00 -1.224647e-16 -0.000000e+00
      outer loop
         vertex 0.000000e+00 2.000000e+01 2.000000e+01
         vertex 0.000000e+00 2.000000e+01 0.000000e+00
         vertex 5.696178e-16 1.534872e+01 1.670000e+01
      endloop
   endfacet
   facet normal 0.000000e+00 -1.000000e+00 0.000000e+00
      outer loop
         vertex 1.365256e+01 1.620000e+01 1.900000e+01
         vertex 6.976923e+00 1.620000e+01 2.000000e+01
         vertex 6.976923e+00 1.620000e+01 1.900000e+01
      endloop
   endfacet
   facet normal -0.000000e+00 -1.000000e+00 -0.000000e+00
      outer loop
         vertex 1.365256e+01 1.620000e+01 2.000000e+01
         vertex 6.976923e+00 1.620000e+01 2.000000e+01
         vertex 1.365256e+01 1.620000e+01 1.900000e+01
      endloop
   endfacet
   facet normal 0.000000e+00 0.000000e+00 1.000000e+00
      outer loop
         vertex 2.000000e+01 2.000000e+01 2.000000e+01
         vertex 0.000000e+00 2.000000e+01 2.000000e+01
         vertex 6.976923e+00 1.620000e+01 2.000000e+01
      endloop
   endfacet
   facet normal 0.000000e+00 -0.000000e+00 1.000000e+00
      outer loop
         vertex 1.365256e+01 1.620000e+01 2.000000e+01
         vertex 2.000000e+01 2.000000e+01 2.000000e+01
         vertex 6.976923e+00 1.620000e+01 2.000000e+01
      endloop
   endfacet
   facet normal 8.421838e-01 0.000000e+00 -5.391905e-01
      outer loop
         vertex 8.716707e+00 2.000000e+01 9.522797e+00
         vertex 8.716707e+00 1.900000e+01 9.522797e+00
         vertex 4.732692e+00 1.900000e+01 3.300000e+00
      endloop
   endfacet
   facet normal 8.421838e-01 0.000000e+00 -5.391905e-01
      outer loop
         vertex 4.732692e+00 2.000000e+01 3.300000e+00
         vertex 8.716707e+00 2.000000e+01 9.522797e+00
         vertex 4.732692e+00 1.900000e+01 3.300000e+00
      endloop
   endfacet
   facet normal 0.000000e+00 0.000000e+00 1.000000e+00
      outer loop
         vertex 6.047977e+00 1.900000e+01 3.300000e+00
         vertex 4.732692e+00 2.000000e+01 3.300000e+00
         vertex 4.732692e+00 1.900000e+01 3.300000e+00
      endloop
   endfacet
   facet normal 0.000000e+00 1.000000e+00 0.000000e+00
      outer loop
         vertex 9.373077e+00 1.900000e+01 8.494992e+00
         vertex 6.047977e+00 1.900000e+01 3.300000e+00
         vertex 4.732692e+00 1.900000e+01 3.300000e+00
      endloop
   endfacet
   facet normal 0.000000e+00 1.000000e+00 0.000000e+00
      outer loop
         vertex 8.716707e+00 1.900000e+01 9.522797e+00
         vertex 9.373077e+00 1.900000e+01 8.494992e+00
         vertex 4.732692e+00 1.900000e+01 3.300000e+00
      endloop
   endfacet
   facet normal 0.000000e+00 0.000000e+00 1.000000e+00
      outer loop
         vertex 6.047977e+00 2.000000e+01 3.300000e+00
         vertex 4.732692e+00 2.000000e+01 3.300000e+00
         vertex 6.047977e+00 1.900000e+01 3.300000e+00
      endloop
   endfacet
   facet normal -8.422489e-01 0.000000e+00 5.390889e-01
      outer loop
         vertex 9.373077e+00 1.900000e+01 8.494992e+00
         vertex 6.047977e+00 2.000000e+01 3.300000e+00
         vertex 6.047977e+00 1.900000e+01 3.300000e+00
      endloop
   endfacet
   facet normal 8.422489e-01 0.000000e+00 5.390888e-01
      outer loop
         vertex 9.373077e+00 2.000000e+01 8.494992e+00
         vertex 9.373077e+00 1.900000e+01 8.494992e+00
         vertex 1.269818e+01 1.900000e+01 3.300000e+00
      endloop
   endfacet
   facet normal 8.422489e-01 0.000000e+00 5.390888e-01
      outer loop
         vertex 1.269818e+01 2.000000e+01 3.300000e+00
         vertex 9.373077e+00 2.000000e+01 8.494992e+00
         vertex 1.269818e+01 1.900000e+01 3.300000e+00
      endloop
   endfacet
   facet normal 0.000000e+00 0.000000e+00 1.000000e+00
      outer loop
         vertex 1.401346e+01 1.900000e+01 3.300000e+00
         vertex 1.269818e+01 2.000000e+01 3.300000e+00
         vertex 1.269818e+01 1.900000e+01 3.300000e+00
      endloop
   endfacet
   facet normal 0.000000e+00 1.000000e+00 0.000000e+00
      outer loop
         vertex 1.003199e+01 1.900000e+01 9.522797e+00
         vertex 1.401346e+01 1.900000e+01 3.300000e+00
         vertex 1.269818e+01 1.900000e+01 3.300000e+00
      endloop
   endfacet
   facet normal -0.000000e+00 1.000000e+00 0.000000e+00
      outer loop
         vertex 9.373077e+00 1.900000e+01 8.494992e+00
         vertex 1.003199e+01 1.900000e+01 9.522797e+00
         vertex 1.269818e+01 1.900000e+01 3.300000e+00
      endloop
   endfacet
   facet normal 0.000000e+00 0.000000e+00 1.000000e+00
      outer loop
         vertex 1.401346e+01 2.000000e+01 3.300000e+00
         vertex 1.269818e+01 2.000000e+01 3.300000e+00
         vertex 1.401346e+01 1.900000e+01 3.300000e+00
      endloop
   endfacet
   facet normal -8.423402e-01 0.000000e+00 -5.389462e-01
      outer loop
         vertex 1.003199e+01 1.900000e+01 9.522797e+00
         vertex 1.401346e+01 2.000000e+01 3.300000e+00
         vertex 1.401346e+01 1.900000e+01 3.300000e+00
      endloop
   endfacet
   facet normal -8.422489e-01 0.000000e+00 5.390889e-01
      outer loop
         vertex 9.373077e+00 2.000000e+01 8.494992e+00
         vertex 6.047977e+00 2.000000e+01 3.300000e+00
         vertex 9.373077e+00 1.900000e+01 8.494992e+00
      endloop
   endfacet
   facet normal 0.000000e+00 1.000000e+00 0.000000e+00
      outer loop
         vertex 9.373077e+00 1.900000e+01 1.055060e+01
         vertex 1.003199e+01 1.900000e+01 9.522797e+00
         vertex 9.373077e+00 1.900000e+01 8.494992e+00
      endloop
   endfacet
   facet normal -0.000000e+00 1.000000e+00 0.000000e+00
      outer loop
         vertex 8.716707e+00 1.900000e+01 9.522797e+00
         vertex 9.373077e+00 1.900000e+01 1.055060e+01
         vertex 9.373077e+00 1.900000e+01 8.494992e+00
      endloop
   endfacet
   facet normal 8.421873e-01 0.000000e+00 5.391851e-01
      outer loop
         vertex 4.569872e+00 2.000000e+01 1.600000e+01
         vertex 4.569872e+00 1.900000e+01 1.600000e+01
         vertex 8.716707e+00 1.900000e+01 9.522797e+00
      endloop
   endfacet
   facet normal 8.421873e-01 0.000000e+00 5.391851e-01
      outer loop
         vertex 8.716707e+00 2.000000e+01 9.522797e+00
         vertex 4.569872e+00 2.000000e+01 1.600000e+01
         vertex 8.716707e+00 1.900000e+01 9.522797e+00
      endloop
   endfacet
   facet normal 0.000000e+00 1.000000e+00 0.000000e+00
      outer loop
         vertex 5.885156e+00 1.900000e+01 1.600000e+01
         vertex 9.373077e+00 1.900000e+01 1.055060e+01
         vertex 8.716707e+00 1.900000e+01 9.522797e+00
      endloop
   endfacet
   facet normal -0.000000e+00 1.000000e+00 0.000000e+00
      outer loop
         vertex 4.569872e+00 1.900000e+01 1.600000e+01
         vertex 5.885156e+00 1.900000e+01 1.600000e+01
         vertex 8.716707e+00 1.900000e+01 9.522797e+00
      endloop
   endfacet
   facet normal -8.423402e-01 -0.000000e+00 -5.389462e-01
      outer loop
         vertex 1.003199e+01 2.000000e+01 9.522797e+00
         vertex 1.401346e+01 2.000000e+01 3.300000e+00
         vertex 1.003199e+01 1.900000e+01 9.522797e+00
      endloop
   endfacet
   facet normal -8.423375e-01 0.000000e+00 5.389503e-01
      outer loop
         vertex 1.417628e+01 1.900000e+01 1.600000e+01
         vertex 1.003199e+01 2.000000e+01 9.522797e+00
         vertex 1.003199e+01 1.900000e+01 9.522797e+00
      endloop
   endfacet
   facet normal -0.000000e+00 1.000000e+00 0.000000e+00
      outer loop
         vertex 9.373077e+00 1.900000e+01 1.055060e+01
         vertex 1.417628e+01 1.900000e+01 1.600000e+01
         vertex 1.003199e+01 1.900000e+01 9.522797e+00
      endloop
   endfacet
   facet normal 8.422500e-01 0.000000e+00 -5.390871e-01
      outer loop
         vertex 1.286100e+01 2.000000e+01 1.600000e+01
         vertex 1.286100e+01 1.900000e+01 1.600000e+01
         vertex 9.373077e+00 1.900000e+01 1.055060e+01
      endloop
   endfacet
   facet normal 8.422500e-01 0.000000e+00 -5.390871e-01
      outer loop
         vertex 9.373077e+00 2.000000e+01 1.055060e+01
         vertex 1.286100e+01 2.000000e+01 1.600000e+01
         vertex 9.373077e+00 1.900000e+01 1.055060e+01
      endloop
   endfacet
   facet normal -8.422500e-01 0.000000e+00 -5.390872e-01
      outer loop
         vertex 5.885156e+00 1.900000e+01 1.600000e+01
         vertex 9.373077e+00 2.000000e+01 1.055060e+01
         vertex 9.373077e+00 1.900000e+01 1.055060e+01
      endloop
   endfacet
   facet normal -0.000000e+00 1.000000e+00 0.000000e+00
      outer loop
         vertex 1.286100e+01 1.900000e+01 1.600000e+01
         vertex 1.417628e+01 1.900000e+01 1.600000e+01
         vertex 9.373077e+00 1.900000e+01 1.055060e+01
      endloop
   endfacet
   facet normal 0.000000e+00 -0.000000e+00 -1.000000e+00
      outer loop
         vertex 5.885156e+00 2.000000e+01 1.600000e+01
         vertex 5.885156e+00 1.900000e+01 1.600000e+01
         vertex 4.569872e+00 1.900000e+01 1.600000e+01
      endloop
   endfacet
   facet normal 0.000000e+00 0.000000e+00 -1.000000e+00
      outer loop
         vertex 4.569872e+00 2.000000e+01 1.600000e+01
         vertex 5.885156e+00 2.000000e+01 1.600000e+01
         vertex 4.569872e+00 1.900000e+01 1.600000e+01
      endloop
   endfacet
   facet normal -8.422500e-01 -0.000000e+00 -5.390872e-01
      outer loop
         vertex 5.885156e+00 2.000000e+01 1.600000e+01
         vertex 9.373077e+00 2.000000e+01 1.055060e+01
         vertex 5.885156e+00 1.900000e+01 1.600000e+01
      endloop
   endfacet
   facet normal 0.000000e+00 -0.000000e+00 -1.000000e+00
      outer loop
         vertex 1.417628e+01 2.000000e+01 1.600000e+01
         vertex 1.417628e+01 1.900000e+01 1.600000e+01
         vertex 1.286100e+01 1.900000e+01 1.600000e+01
      endloop
   endfacet
   facet normal 0.000000e+00 0.000000e+00 -1.000000e+00
      outer loop
         vertex 1.286100e+01 2.000000e+01 1.600000e+01
         vertex 1.417628e+01 2.000000e+01 1.600000e+01
         vertex 1.286100e+01 1.900000e+01 1.600000e+01
      endloop
   endfacet
   facet normal -8.423375e-01 0.000000e+00 5.389503e-01
      outer loop
         vertex 1.417628e+01 2.000000e+01 1.600000e+01
         vertex 1.003199e+01 2.000000e+01 9.522797e+00
         vertex 1.417628e+01 1.900000e+01 1.600000e+01
      endloop
   endfacet
   facet normal 0.000000e+00 1.000000e+00 0.000000e+00
      outer loop
         vertex 0.000000e+00 2.000000e+01 2.000000e+01
         vertex 4.569872e+00 2.000000e+01 1.600000e+01
         vertex 0.000000e+00 2.000000e+01 0.000000e+00
      endloop
   endfacet
   facet normal 0.000000e+00 1.000000e+00 0.000000e+00
      outer loop
         vertex 4.569872e+00 2.000000e+01 1.600000e+01
         vertex 4.732692e+00 2.000000e+01 3.300000e+00
         vertex 0.000000e+00 2.000000e+01 0.000000e+00
      endloop
   endfacet
   facet normal -0.000000e+00 1.000000e+00 0.000000e+00
      outer loop
         vertex 4.732692e+00 2.000000e+01 3.300000e+00
         vertex 6.047977e+00 2.000000e+01 3.300000e+00
         vertex 0.000000e+00 2.000000e+01 0.000000e+00
      endloop
   endfacet
   facet normal 0.000000e+00 1.000000e+00 0.000000e+00
      outer loop
         vertex 6.047977e+00 2.000000e+01 3.300000e+00
         vertex 2.000000e+01 2.000000e+01 0.000000e+00
         vertex 0.000000e+00 2.000000e+01 0.000000e+00
      endloop
   endfacet
   facet normal -0.000000e+00 1.000000e+00 -0.000000e+00
      outer loop
         vertex 1.401346e+01 2.000000e+01 3.300000e+00
         vertex 1.003199e+01 2.000000e+01 9.522797e+00
         vertex 2.000000e+01 2.000000e+01 0.000000e+00
      endloop
   endfacet
   facet normal -0.000000e+00 1.000000e+00 0.000000e+00
      outer loop
         vertex 1.003199e+01 2.000000e+01 9.522797e+00
         vertex 1.417628e+01 2.000000e+01 1.600000e+01
         vertex 2.000000e+01 2.000000e+01 0.000000e+00
      endloop
   endfacet
   facet normal -0.000000e+00 1.000000e+00 0.000000e+00
      outer loop
         vertex 1.417628e+01 2.000000e+01 1.600000e+01
         vertex 2.000000e+01 2.000000e+01 2.000000e+01
         vertex 2.000000e+01 2.000000e+01 0.000000e+00
      endloop
   endfacet
   facet normal -0.000000e+00 1.000000e+00 0.000000e+00
      outer loop
         vertex 6.047977e+00 2.000000e+01 3.300000e+00
         vertex 1.269818e+01 2.000000e+01 3.300000e+00
         vertex 2.000000e+01 2.000000e+01 0.000000e+00
      endloop
   endfacet
   facet normal -0.000000e+00 1.000000e+00 0.000000e+00
      outer loop
         vertex 1.269818e+01 2.000000e+01 3.300000e+00
         vertex 1.401346e+01 2.000000e+01 3.300000e+00
         vertex 2.000000e+01 2.000000e+01 0.000000e+00
      endloop
   endfacet
   facet normal 0.000000e+00 1.000000e+00 0.000000e+00
      outer loop
         vertex 4.569872e+00 2.000000e+01 1.600000e+01
         vertex 8.716707e+00 2.000000e+01 9.522797e+00
         vertex 4.732692e+00 2.000000e+01 3.300000e+00
      endloop
   endfacet
   facet normal 0.000000e+00 1.000000e+00 0.000000e+00
      outer loop
         vertex 9.373077e+00 2.000000e+01 8.494992e+00
         vertex 1.269818e+01 2.000000e+01 3.300000e+00
         vertex 6.047977e+00 2.000000e+01 3.300000e+00
      endloop
   endfacet
   facet normal -0.000000e+00 1.000000e+00 0.000000e+00
      outer loop
         vertex 5.885156e+00 2.000000e+01 1.600000e+01
         vertex 1.286100e+01 2.000000e+01 1.600000e+01
         vertex 9.373077e+00 2.000000e+01 1.055060e+01
      endloop
   endfacet
   facet normal 0.000000e+00 1.000000e+00 0.000000e+00
      outer loop
         vertex 0.000000e+00 2.000000e+01 2.000000e+01
         vertex 5.885156e+00 2.000000e+01 1.600000e+01
         vertex 4.569872e+00 2.000000e+01 1.600000e+01
      endloop
   endfacet
   facet normal 0.000000e+00 1.000000e+00 0.000000e+00
      outer loop
         vertex 0.000000e+00 2.000000e+01 2.000000e+01
         vertex 1.286100e+01 2.000000e+01 1.600000e+01
         vertex 5.885156e+00 2.000000e+01 1.600000e+01
      endloop
   endfacet
   facet normal 0.000000e+00 1.000000e+00 0.000000e+00
      outer loop
         vertex 2.000000e+01 2.000000e+01 2.000000e+01
         vertex 1.417628e+01 2.000000e+01 1.600000e+01
         vertex 1.286100e+01 2.000000e+01 1.600000e+01
      endloop
   endfacet
   facet normal -0.000000e+00 1.000000e+00 0.000000e+00
      outer loop
         vertex 0.000000e+00 2.000000e+01 2.000000e+01
         vertex 2.000000e+01 2.000000e+01 2.000000e+01
         vertex 1.286100e+01 2.000000e+01 1.600000e+01
      endloop
   endfacet
endsolid